<mxfile host="Electron" agent="Mozilla/5.0 (X11; Linux x86_64) AppleWebKit/537.36 (KHTML, like Gecko) draw.io/26.1.1 Chrome/132.0.6834.210 Electron/34.3.3 Safari/537.36" version="26.1.1">
  <diagram name="Page-1" id="EdMf8-V5EiN-kwd-t6O7">
    <mxGraphModel dx="782" dy="479" grid="1" gridSize="10" guides="1" tooltips="1" connect="1" arrows="1" fold="1" page="1" pageScale="1" pageWidth="850" pageHeight="1100" math="0" shadow="0">
      <root>
        <mxCell id="0" />
        <mxCell id="1" parent="0" />
        <mxCell id="2W2YxScj8D6YiXkO_WwG-1" value="Dice" style="swimlane;fontStyle=1;align=center;verticalAlign=top;childLayout=stackLayout;horizontal=1;startSize=26;horizontalStack=0;resizeParent=1;resizeParentMax=0;resizeLast=0;collapsible=1;marginBottom=0;whiteSpace=wrap;html=1;" parent="1" vertex="1">
          <mxGeometry x="120" y="133" width="180" height="260" as="geometry" />
        </mxCell>
        <mxCell id="2W2YxScj8D6YiXkO_WwG-2" value="+ min: int = 1 {readOnly}" style="text;strokeColor=none;fillColor=none;align=left;verticalAlign=top;spacingLeft=4;spacingRight=4;overflow=hidden;rotatable=0;points=[[0,0.5],[1,0.5]];portConstraint=eastwest;whiteSpace=wrap;html=1;" parent="2W2YxScj8D6YiXkO_WwG-1" vertex="1">
          <mxGeometry y="26" width="180" height="26" as="geometry" />
        </mxCell>
        <mxCell id="mfLh_B_O5Ps-NJXOkFJ7-5" value="+ max: int = 6 {readOnly}" style="text;strokeColor=none;fillColor=none;align=left;verticalAlign=top;spacingLeft=4;spacingRight=4;overflow=hidden;rotatable=0;points=[[0,0.5],[1,0.5]];portConstraint=eastwest;whiteSpace=wrap;html=1;" vertex="1" parent="2W2YxScj8D6YiXkO_WwG-1">
          <mxGeometry y="52" width="180" height="26" as="geometry" />
        </mxCell>
        <mxCell id="2W2YxScj8D6YiXkO_WwG-3" value="" style="line;strokeWidth=1;fillColor=none;align=left;verticalAlign=middle;spacingTop=-1;spacingLeft=3;spacingRight=3;rotatable=0;labelPosition=right;points=[];portConstraint=eastwest;strokeColor=inherit;" parent="2W2YxScj8D6YiXkO_WwG-1" vertex="1">
          <mxGeometry y="78" width="180" height="8" as="geometry" />
        </mxCell>
        <mxCell id="mfLh_B_O5Ps-NJXOkFJ7-18" value="+ Dice()" style="text;strokeColor=none;fillColor=none;align=left;verticalAlign=top;spacingLeft=4;spacingRight=4;overflow=hidden;rotatable=0;points=[[0,0.5],[1,0.5]];portConstraint=eastwest;whiteSpace=wrap;html=1;" vertex="1" parent="2W2YxScj8D6YiXkO_WwG-1">
          <mxGeometry y="86" width="180" height="26" as="geometry" />
        </mxCell>
        <mxCell id="mfLh_B_O5Ps-NJXOkFJ7-19" value="+ Dice(min: int, max: int)" style="text;strokeColor=none;fillColor=none;align=left;verticalAlign=top;spacingLeft=4;spacingRight=4;overflow=hidden;rotatable=0;points=[[0,0.5],[1,0.5]];portConstraint=eastwest;whiteSpace=wrap;html=1;" vertex="1" parent="2W2YxScj8D6YiXkO_WwG-1">
          <mxGeometry y="112" width="180" height="26" as="geometry" />
        </mxCell>
        <mxCell id="mfLh_B_O5Ps-NJXOkFJ7-37" value="+ toString() : Stirng" style="text;strokeColor=none;fillColor=none;align=left;verticalAlign=top;spacingLeft=4;spacingRight=4;overflow=hidden;rotatable=0;points=[[0,0.5],[1,0.5]];portConstraint=eastwest;whiteSpace=wrap;html=1;" vertex="1" parent="2W2YxScj8D6YiXkO_WwG-1">
          <mxGeometry y="138" width="180" height="26" as="geometry" />
        </mxCell>
        <mxCell id="2W2YxScj8D6YiXkO_WwG-4" value="+ launch() : int" style="text;strokeColor=none;fillColor=none;align=left;verticalAlign=top;spacingLeft=4;spacingRight=4;overflow=hidden;rotatable=0;points=[[0,0.5],[1,0.5]];portConstraint=eastwest;whiteSpace=wrap;html=1;" parent="2W2YxScj8D6YiXkO_WwG-1" vertex="1">
          <mxGeometry y="164" width="180" height="26" as="geometry" />
        </mxCell>
        <mxCell id="mfLh_B_O5Ps-NJXOkFJ7-1" value="" style="line;strokeWidth=1;fillColor=none;align=left;verticalAlign=middle;spacingTop=-1;spacingLeft=3;spacingRight=3;rotatable=0;labelPosition=right;points=[];portConstraint=eastwest;strokeColor=inherit;" vertex="1" parent="2W2YxScj8D6YiXkO_WwG-1">
          <mxGeometry y="190" width="180" height="10" as="geometry" />
        </mxCell>
        <mxCell id="mfLh_B_O5Ps-NJXOkFJ7-2" value="Questa classe rappresenta un dado con valori nell&#39;intevallo&amp;nbsp;&lt;div&gt;[min, max].&amp;nbsp;&lt;/div&gt;" style="text;strokeColor=none;fillColor=none;align=left;verticalAlign=top;spacingLeft=4;spacingRight=4;overflow=hidden;rotatable=0;points=[[0,0.5],[1,0.5]];portConstraint=eastwest;whiteSpace=wrap;html=1;" vertex="1" parent="2W2YxScj8D6YiXkO_WwG-1">
          <mxGeometry y="200" width="180" height="60" as="geometry" />
        </mxCell>
        <mxCell id="2W2YxScj8D6YiXkO_WwG-6" value="Player" style="swimlane;fontStyle=1;align=center;verticalAlign=top;childLayout=stackLayout;horizontal=1;startSize=26;horizontalStack=0;resizeParent=1;resizeParentMax=0;resizeLast=0;collapsible=1;marginBottom=0;whiteSpace=wrap;html=1;" parent="1" vertex="1">
          <mxGeometry x="475" y="70" width="270" height="386" as="geometry" />
        </mxCell>
        <mxCell id="2W2YxScj8D6YiXkO_WwG-10" value="+ name: String {readOnly}" style="text;strokeColor=none;fillColor=none;align=left;verticalAlign=top;spacingLeft=4;spacingRight=4;overflow=hidden;rotatable=0;points=[[0,0.5],[1,0.5]];portConstraint=eastwest;whiteSpace=wrap;html=1;" parent="2W2YxScj8D6YiXkO_WwG-6" vertex="1">
          <mxGeometry y="26" width="270" height="26" as="geometry" />
        </mxCell>
        <mxCell id="2W2YxScj8D6YiXkO_WwG-11" value="+ surname: String {readOnly}" style="text;strokeColor=none;fillColor=none;align=left;verticalAlign=top;spacingLeft=4;spacingRight=4;overflow=hidden;rotatable=0;points=[[0,0.5],[1,0.5]];portConstraint=eastwest;whiteSpace=wrap;html=1;" parent="2W2YxScj8D6YiXkO_WwG-6" vertex="1">
          <mxGeometry y="52" width="270" height="26" as="geometry" />
        </mxCell>
        <mxCell id="2W2YxScj8D6YiXkO_WwG-12" value="+ nickname: String {readOnly}" style="text;strokeColor=none;fillColor=none;align=left;verticalAlign=top;spacingLeft=4;spacingRight=4;overflow=hidden;rotatable=0;points=[[0,0.5],[1,0.5]];portConstraint=eastwest;whiteSpace=wrap;html=1;" parent="2W2YxScj8D6YiXkO_WwG-6" vertex="1">
          <mxGeometry y="78" width="270" height="26" as="geometry" />
        </mxCell>
        <mxCell id="2W2YxScj8D6YiXkO_WwG-19" value="- score: int" style="text;strokeColor=none;fillColor=none;align=left;verticalAlign=top;spacingLeft=4;spacingRight=4;overflow=hidden;rotatable=0;points=[[0,0.5],[1,0.5]];portConstraint=eastwest;whiteSpace=wrap;html=1;" parent="2W2YxScj8D6YiXkO_WwG-6" vertex="1">
          <mxGeometry y="104" width="270" height="26" as="geometry" />
        </mxCell>
        <mxCell id="2W2YxScj8D6YiXkO_WwG-8" value="" style="line;strokeWidth=1;fillColor=none;align=left;verticalAlign=middle;spacingTop=-1;spacingLeft=3;spacingRight=3;rotatable=0;labelPosition=right;points=[];portConstraint=eastwest;strokeColor=inherit;" parent="2W2YxScj8D6YiXkO_WwG-6" vertex="1">
          <mxGeometry y="130" width="270" height="8" as="geometry" />
        </mxCell>
        <mxCell id="mfLh_B_O5Ps-NJXOkFJ7-20" value="+ Player(name: String, surname: String,&amp;nbsp; nickname: String, dice: Dice)" style="text;strokeColor=none;fillColor=none;align=left;verticalAlign=top;spacingLeft=4;spacingRight=4;overflow=hidden;rotatable=0;points=[[0,0.5],[1,0.5]];portConstraint=eastwest;whiteSpace=wrap;html=1;" vertex="1" parent="2W2YxScj8D6YiXkO_WwG-6">
          <mxGeometry y="138" width="270" height="42" as="geometry" />
        </mxCell>
        <mxCell id="2W2YxScj8D6YiXkO_WwG-25" value="+ toString(): String {query}" style="text;strokeColor=none;fillColor=none;align=left;verticalAlign=top;spacingLeft=4;spacingRight=4;overflow=hidden;rotatable=0;points=[[0,0.5],[1,0.5]];portConstraint=eastwest;whiteSpace=wrap;html=1;" parent="2W2YxScj8D6YiXkO_WwG-6" vertex="1">
          <mxGeometry y="180" width="270" height="26" as="geometry" />
        </mxCell>
        <mxCell id="2W2YxScj8D6YiXkO_WwG-21" value="+ getScore(): int {query}" style="text;strokeColor=none;fillColor=none;align=left;verticalAlign=top;spacingLeft=4;spacingRight=4;overflow=hidden;rotatable=0;points=[[0,0.5],[1,0.5]];portConstraint=eastwest;whiteSpace=wrap;html=1;" parent="2W2YxScj8D6YiXkO_WwG-6" vertex="1">
          <mxGeometry y="206" width="270" height="26" as="geometry" />
        </mxCell>
        <mxCell id="mfLh_B_O5Ps-NJXOkFJ7-36" value="+ resetScore() {modifier}" style="text;strokeColor=none;fillColor=none;align=left;verticalAlign=top;spacingLeft=4;spacingRight=4;overflow=hidden;rotatable=0;points=[[0,0.5],[1,0.5]];portConstraint=eastwest;whiteSpace=wrap;html=1;" vertex="1" parent="2W2YxScj8D6YiXkO_WwG-6">
          <mxGeometry y="232" width="270" height="26" as="geometry" />
        </mxCell>
        <mxCell id="mfLh_B_O5Ps-NJXOkFJ7-35" value="+ setDice(dice: Dice) {modifier}" style="text;strokeColor=none;fillColor=none;align=left;verticalAlign=top;spacingLeft=4;spacingRight=4;overflow=hidden;rotatable=0;points=[[0,0.5],[1,0.5]];portConstraint=eastwest;whiteSpace=wrap;html=1;" vertex="1" parent="2W2YxScj8D6YiXkO_WwG-6">
          <mxGeometry y="258" width="270" height="26" as="geometry" />
        </mxCell>
        <mxCell id="2W2YxScj8D6YiXkO_WwG-20" value="+ launchDice(): int {modifier}" style="text;strokeColor=none;fillColor=none;align=left;verticalAlign=top;spacingLeft=4;spacingRight=4;overflow=hidden;rotatable=0;points=[[0,0.5],[1,0.5]];portConstraint=eastwest;whiteSpace=wrap;html=1;" parent="2W2YxScj8D6YiXkO_WwG-6" vertex="1">
          <mxGeometry y="284" width="270" height="26" as="geometry" />
        </mxCell>
        <mxCell id="mfLh_B_O5Ps-NJXOkFJ7-8" value="" style="line;strokeWidth=1;fillColor=none;align=left;verticalAlign=middle;spacingTop=-1;spacingLeft=3;spacingRight=3;rotatable=0;labelPosition=right;points=[];portConstraint=eastwest;strokeColor=inherit;" vertex="1" parent="2W2YxScj8D6YiXkO_WwG-6">
          <mxGeometry y="310" width="270" height="8" as="geometry" />
        </mxCell>
        <mxCell id="mfLh_B_O5Ps-NJXOkFJ7-9" value="Un player possiede un dado e può lanciarlo.&lt;div&gt;Inoltre mantiene il proprio punteggio&amp;nbsp;&lt;/div&gt;&lt;div&gt;durante una partita. Tra una partita e l&#39;altra un player può cambiare il dado che usa.&lt;/div&gt;" style="text;strokeColor=none;fillColor=none;align=left;verticalAlign=top;spacingLeft=4;spacingRight=4;overflow=hidden;rotatable=0;points=[[0,0.5],[1,0.5]];portConstraint=eastwest;whiteSpace=wrap;html=1;" vertex="1" parent="2W2YxScj8D6YiXkO_WwG-6">
          <mxGeometry y="318" width="270" height="68" as="geometry" />
        </mxCell>
        <mxCell id="2W2YxScj8D6YiXkO_WwG-14" value="Game" style="swimlane;fontStyle=1;align=center;verticalAlign=top;childLayout=stackLayout;horizontal=1;startSize=26;horizontalStack=0;resizeParent=1;resizeParentMax=0;resizeLast=0;collapsible=1;marginBottom=0;whiteSpace=wrap;html=1;" parent="1" vertex="1">
          <mxGeometry x="477.5" y="590" width="265" height="284" as="geometry" />
        </mxCell>
        <mxCell id="2W2YxScj8D6YiXkO_WwG-18" value="- numRounds: int = 1" style="text;strokeColor=none;fillColor=none;align=left;verticalAlign=top;spacingLeft=4;spacingRight=4;overflow=hidden;rotatable=0;points=[[0,0.5],[1,0.5]];portConstraint=eastwest;whiteSpace=wrap;html=1;" parent="2W2YxScj8D6YiXkO_WwG-14" vertex="1">
          <mxGeometry y="26" width="265" height="26" as="geometry" />
        </mxCell>
        <mxCell id="2W2YxScj8D6YiXkO_WwG-16" value="" style="line;strokeWidth=1;fillColor=none;align=left;verticalAlign=middle;spacingTop=-1;spacingLeft=3;spacingRight=3;rotatable=0;labelPosition=right;points=[];portConstraint=eastwest;strokeColor=inherit;" parent="2W2YxScj8D6YiXkO_WwG-14" vertex="1">
          <mxGeometry y="52" width="265" height="8" as="geometry" />
        </mxCell>
        <mxCell id="mfLh_B_O5Ps-NJXOkFJ7-22" value="+ Game(playerOne: Player, playerTwo: Player, numRounds: int)" style="text;strokeColor=none;fillColor=none;align=left;verticalAlign=top;spacingLeft=4;spacingRight=4;overflow=hidden;rotatable=0;points=[[0,0.5],[1,0.5]];portConstraint=eastwest;whiteSpace=wrap;html=1;" vertex="1" parent="2W2YxScj8D6YiXkO_WwG-14">
          <mxGeometry y="60" width="265" height="50" as="geometry" />
        </mxCell>
        <mxCell id="mfLh_B_O5Ps-NJXOkFJ7-27" value="+ setPlayerOne(playerOne: Player) {modifier}" style="text;strokeColor=none;fillColor=none;align=left;verticalAlign=top;spacingLeft=4;spacingRight=4;overflow=hidden;rotatable=0;points=[[0,0.5],[1,0.5]];portConstraint=eastwest;whiteSpace=wrap;html=1;" vertex="1" parent="2W2YxScj8D6YiXkO_WwG-14">
          <mxGeometry y="110" width="265" height="26" as="geometry" />
        </mxCell>
        <mxCell id="mfLh_B_O5Ps-NJXOkFJ7-28" value="+ setPlayerTwo(playerTwo: Player) {modifier}" style="text;strokeColor=none;fillColor=none;align=left;verticalAlign=top;spacingLeft=4;spacingRight=4;overflow=hidden;rotatable=0;points=[[0,0.5],[1,0.5]];portConstraint=eastwest;whiteSpace=wrap;html=1;" vertex="1" parent="2W2YxScj8D6YiXkO_WwG-14">
          <mxGeometry y="136" width="265" height="26" as="geometry" />
        </mxCell>
        <mxCell id="2W2YxScj8D6YiXkO_WwG-23" value="+ play(numRounds: int)" style="text;strokeColor=none;fillColor=none;align=left;verticalAlign=top;spacingLeft=4;spacingRight=4;overflow=hidden;rotatable=0;points=[[0,0.5],[1,0.5]];portConstraint=eastwest;whiteSpace=wrap;html=1;" parent="2W2YxScj8D6YiXkO_WwG-14" vertex="1">
          <mxGeometry y="162" width="265" height="26" as="geometry" />
        </mxCell>
        <mxCell id="mfLh_B_O5Ps-NJXOkFJ7-33" value="" style="line;strokeWidth=1;fillColor=none;align=left;verticalAlign=middle;spacingTop=-1;spacingLeft=3;spacingRight=3;rotatable=0;labelPosition=right;points=[];portConstraint=eastwest;strokeColor=inherit;" vertex="1" parent="2W2YxScj8D6YiXkO_WwG-14">
          <mxGeometry y="188" width="265" height="8" as="geometry" />
        </mxCell>
        <mxCell id="mfLh_B_O5Ps-NJXOkFJ7-34" value="Questa classe rappresenta una partita tra due&amp;nbsp;&lt;div&gt;giocatori. E&#39; possibile simulare una&amp;nbsp;&lt;/div&gt;&lt;div&gt;partita con il metodo play stabilendo il numero di turni da giocare. Tra una partita e l&#39;altra è possibile cambiare i giocatori in gioco.&lt;/div&gt;" style="text;strokeColor=none;fillColor=none;align=left;verticalAlign=top;spacingLeft=4;spacingRight=4;overflow=hidden;rotatable=0;points=[[0,0.5],[1,0.5]];portConstraint=eastwest;whiteSpace=wrap;html=1;" vertex="1" parent="2W2YxScj8D6YiXkO_WwG-14">
          <mxGeometry y="196" width="265" height="88" as="geometry" />
        </mxCell>
        <mxCell id="mfLh_B_O5Ps-NJXOkFJ7-10" value="" style="endArrow=open;endFill=1;endSize=12;html=1;rounded=0;" edge="1" parent="1" source="2W2YxScj8D6YiXkO_WwG-6" target="2W2YxScj8D6YiXkO_WwG-1">
          <mxGeometry width="160" relative="1" as="geometry">
            <mxPoint x="410" y="290" as="sourcePoint" />
            <mxPoint x="570" y="290" as="targetPoint" />
          </mxGeometry>
        </mxCell>
        <mxCell id="mfLh_B_O5Ps-NJXOkFJ7-21" value="1" style="text;html=1;align=center;verticalAlign=middle;resizable=0;points=[];autosize=1;strokeColor=none;fillColor=none;" vertex="1" parent="1">
          <mxGeometry x="310" y="260" width="30" height="30" as="geometry" />
        </mxCell>
        <mxCell id="mfLh_B_O5Ps-NJXOkFJ7-23" value="" style="endArrow=open;endFill=1;endSize=12;html=1;rounded=0;" edge="1" parent="1" source="2W2YxScj8D6YiXkO_WwG-14" target="2W2YxScj8D6YiXkO_WwG-6">
          <mxGeometry width="160" relative="1" as="geometry">
            <mxPoint x="580" y="540" as="sourcePoint" />
            <mxPoint x="740" y="540" as="targetPoint" />
          </mxGeometry>
        </mxCell>
        <mxCell id="mfLh_B_O5Ps-NJXOkFJ7-24" value="2" style="text;html=1;align=center;verticalAlign=middle;resizable=0;points=[];autosize=1;strokeColor=none;fillColor=none;" vertex="1" parent="1">
          <mxGeometry x="610" y="470" width="30" height="30" as="geometry" />
        </mxCell>
      </root>
    </mxGraphModel>
  </diagram>
</mxfile>
